<svg width="15" height="15" viewBox="0 0 15 15" fill="none" xmlns="http://www.w3.org/2000/svg">
<path fill-rule="evenodd" clip-rule="evenodd" d="M1 7.5C1 3.9159 3.91567 1 7.49987 1C11.0841 1 14 3.9159 14 7.5C14 11.0841 11.0841 14 7.49987 14C3.91567 14 1 11.0841 1 7.5ZM1.85247 7.5C1.85247 10.614 4.38585 13.1475 7.49987 13.1475C10.6139 13.1475 13.1475 10.614 13.1474 7.5C13.1474 4.38598 10.6139 1.85251 7.49987 1.85251C4.38582 1.85251 1.85247 4.38595 1.85247 7.5Z" fill="#53B43B"/>
<path d="M13.1474 7.5H12.8974V7.5L13.1474 7.5ZM7.49987 0.75C3.77759 0.75 0.75 3.77784 0.75 7.5H1.25C1.25 4.05396 4.05375 1.25 7.49987 1.25V0.75ZM14.25 7.5C14.25 3.77782 11.2221 0.75 7.49987 0.75V1.25C10.946 1.25 13.75 4.05398 13.75 7.5H14.25ZM7.49987 14.25C11.2221 14.25 14.25 11.2222 14.25 7.5H13.75C13.75 10.946 10.946 13.75 7.49987 13.75V14.25ZM0.75 7.5C0.75 11.2222 3.77759 14.25 7.49987 14.25V13.75C4.05375 13.75 1.25 10.946 1.25 7.5H0.75ZM7.49987 12.8975C4.52393 12.8975 2.10247 10.476 2.10247 7.5H1.60247C1.60247 10.7521 4.24777 13.3975 7.49987 13.3975V12.8975ZM12.8974 7.5C12.8975 10.4759 10.4758 12.8975 7.49987 12.8975V13.3975C10.752 13.3975 13.3975 10.7521 13.3974 7.5L12.8974 7.5ZM7.49987 2.10251C10.4759 2.10251 12.8974 4.52405 12.8974 7.5H13.3974C13.3974 4.24791 10.752 1.60251 7.49987 1.60251V2.10251ZM2.10247 7.5C2.10247 4.52401 4.52389 2.10251 7.49987 2.10251V1.60251C4.24774 1.60251 1.60247 4.24788 1.60247 7.5H2.10247Z" fill="#53B43B"/>
<path d="M9.29151 5.13861L6.02781 8.85799L4.70852 7.35474C4.54639 7.17019 4.28376 7.17008 4.12164 7.35485C3.95945 7.53969 3.95945 7.83904 4.12164 8.02381L5.73442 9.86158C5.81547 9.95384 5.92164 10 6.02781 10C6.13399 10 6.24044 9.95384 6.32146 9.86143C6.32171 9.86104 6.3219 9.86064 6.32231 9.86017L9.87836 5.80746C10.0405 5.6228 10.0405 5.32323 9.87836 5.13857C9.71627 4.9538 9.45345 4.9538 9.29151 5.13861Z" fill="#53B43B" stroke="#53B43B" stroke-width="0.5"/>
</svg>
