<svg width="136" height="39" viewBox="0 0 136 39" fill="none" xmlns="http://www.w3.org/2000/svg">
<path d="M33.008 33.268C29.3333 36.908 24.8613 38.728 19.592 38.728C14.3227 38.728 9.85067 36.908 6.176 33.268C2.536 29.5933 0.716 25.104 0.716 19.8C0.716 14.496 2.536 10.024 6.176 6.384C9.85067 2.70933 14.3227 0.871998 19.592 0.871998C24.8613 0.871998 29.3333 2.70933 33.008 6.384C36.6827 10.024 38.52 14.496 38.52 19.8C38.52 25.104 36.6827 29.5933 33.008 33.268ZM11.22 28.38C13.4733 30.5987 16.264 31.708 19.592 31.708C22.92 31.708 25.7107 30.5987 27.964 28.38C30.2173 26.1267 31.344 23.2667 31.344 19.8C31.344 16.3333 30.2173 13.4733 27.964 11.22C25.7107 8.96666 22.92 7.84 19.592 7.84C16.264 7.84 13.4733 8.96666 11.22 11.22C8.96667 13.4733 7.84 16.3333 7.84 19.8C7.84 23.2667 8.96667 26.1267 11.22 28.38ZM65.2996 8.464H50.7396V17.096H64.8836V23.96H50.7396V38H43.5636V1.6H65.2996V8.464ZM84.9844 1.6C89.9764 1.6 94.1364 3.35066 97.4644 6.852C100.827 10.3533 102.508 14.6693 102.508 19.8C102.508 24.9307 100.827 29.2467 97.4644 32.748C94.1364 36.2493 89.9764 38 84.9844 38H70.5284V1.6H84.9844ZM84.9844 31.136C88.1391 31.136 90.7044 30.096 92.6804 28.016C94.6564 25.9013 95.6444 23.1627 95.6444 19.8C95.6444 16.4373 94.6564 13.716 92.6804 11.636C90.7044 9.52133 88.1391 8.464 84.9844 8.464H77.7044V31.136H84.9844ZM127.567 38L120.235 25.364H114.775V38H107.599V1.6H122.159C125.521 1.6 128.381 2.77866 130.739 5.136C133.096 7.49333 134.275 10.336 134.275 13.664C134.275 15.9173 133.633 18.0147 132.351 19.956C131.068 21.8627 129.369 23.3013 127.255 24.272L135.315 38H127.567ZM114.775 8.308V19.072H122.159C123.511 19.072 124.672 18.552 125.643 17.512C126.613 16.4373 127.099 15.1547 127.099 13.664C127.099 12.1733 126.613 10.908 125.643 9.868C124.672 8.828 123.511 8.308 122.159 8.308H114.775Z" fill="#E1E1E1"/>
</svg>
